<svg xmlns="http://www.w3.org/2000/svg" xmlns:xlink="http://www.w3.org/1999/xlink" width="600" zoomAndPan="magnify" viewBox="0 0 450 449.999984" height="600" preserveAspectRatio="xMidYMid meet" version="1.0"><defs><clipPath id="55627c5064"><path d="M 219 353 L 262 353 L 262 423.824219 L 219 423.824219 Z M 219 353 " clip-rule="nonzero"/></clipPath><clipPath id="3f3f750bac"><path d="M 250 412 L 433.210938 412 L 433.210938 423.824219 L 250 423.824219 Z M 250 412 " clip-rule="nonzero"/></clipPath><clipPath id="24d8feef4f"><path d="M 320 181 L 417 181 L 417 423.824219 L 320 423.824219 Z M 320 181 " clip-rule="nonzero"/></clipPath><clipPath id="0b9d60373b"><path d="M 217 26.324219 L 301 26.324219 L 301 115 L 217 115 Z M 217 26.324219 " clip-rule="nonzero"/></clipPath><clipPath id="e2dd17acb2"><path d="M 188 353 L 231 353 L 231 423.824219 L 188 423.824219 Z M 188 353 " clip-rule="nonzero"/></clipPath><clipPath id="7fabd78a2b"><path d="M 16.960938 412 L 200 412 L 200 423.824219 L 16.960938 423.824219 Z M 16.960938 412 " clip-rule="nonzero"/></clipPath><clipPath id="eafa2cf591"><path d="M 33 205 L 130 205 L 130 423.824219 L 33 423.824219 Z M 33 205 " clip-rule="nonzero"/></clipPath><clipPath id="1fba77920e"><path d="M 149 26.324219 L 233 26.324219 L 233 115 L 149 115 Z M 149 26.324219 " clip-rule="nonzero"/></clipPath><clipPath id="63429cb15c"><path d="M 58 350 L 103 350 L 103 423.824219 L 58 423.824219 Z M 58 350 " clip-rule="nonzero"/></clipPath></defs><g clip-path="url(#55627c5064)"><path fill="#000000" d="M 256.269531 423.609375 L 225.085938 423.609375 C 221.988281 423.609375 219.453125 421.074219 219.453125 417.976562 L 219.453125 359.464844 C 219.453125 356.367188 221.988281 353.832031 225.085938 353.832031 L 256.269531 353.832031 C 259.367188 353.832031 261.902344 356.367188 261.902344 359.464844 L 261.902344 417.976562 C 261.902344 421.074219 259.367188 423.609375 256.269531 423.609375 Z M 230.722656 412.339844 L 250.632812 412.339844 L 250.632812 365.101562 L 230.722656 365.101562 Z M 230.722656 412.339844 " fill-opacity="1" fill-rule="nonzero"/></g><g clip-path="url(#3f3f750bac)"><path fill="#000000" d="M 427.578125 423.609375 L 256.269531 423.609375 C 253.167969 423.609375 250.632812 421.074219 250.632812 417.976562 C 250.632812 414.875 253.167969 412.339844 256.269531 412.339844 L 427.578125 412.339844 C 430.675781 412.339844 433.210938 414.875 433.210938 417.976562 C 433.210938 421.074219 430.675781 423.609375 427.578125 423.609375 Z M 427.578125 423.609375 " fill-opacity="1" fill-rule="nonzero"/></g><g clip-path="url(#24d8feef4f)"><path fill="#000000" d="M 410.859375 423.609375 L 326.519531 423.609375 C 323.421875 423.609375 320.882812 421.074219 320.882812 417.976562 L 320.882812 187.039062 C 320.882812 183.9375 323.421875 181.402344 326.519531 181.402344 L 410.859375 181.402344 C 413.957031 181.402344 416.492188 183.9375 416.492188 187.039062 L 416.492188 417.976562 C 416.492188 421.074219 413.957031 423.609375 410.859375 423.609375 Z M 332.15625 412.339844 L 405.222656 412.339844 L 405.222656 192.671875 L 332.15625 192.671875 Z M 332.15625 412.339844 " fill-opacity="1" fill-rule="nonzero"/></g><path fill="#000000" d="M 326.519531 192.671875 C 323.421875 192.671875 320.882812 190.136719 320.882812 187.039062 L 320.882812 114.441406 L 225.085938 114.441406 C 221.988281 114.441406 219.453125 111.90625 219.453125 108.804688 C 219.453125 105.707031 221.988281 103.171875 225.085938 103.171875 L 326.519531 103.171875 C 329.617188 103.171875 332.15625 105.707031 332.15625 108.804688 L 332.15625 187.039062 C 332.15625 190.136719 329.617188 192.671875 326.519531 192.671875 Z M 326.519531 192.671875 " fill-opacity="1" fill-rule="nonzero"/><path fill="#000000" d="M 238.234375 172.480469 L 223.585938 172.480469 C 220.484375 172.480469 217.949219 169.945312 217.949219 166.847656 C 217.949219 163.746094 220.484375 161.210938 223.585938 161.210938 L 232.601562 161.210938 L 232.601562 142.050781 L 223.585938 142.050781 C 220.484375 142.050781 217.949219 139.515625 217.949219 136.417969 C 217.949219 133.316406 220.484375 130.78125 223.585938 130.78125 L 238.234375 130.78125 C 241.335938 130.78125 243.871094 133.316406 243.871094 136.417969 L 243.871094 166.847656 C 243.871094 169.945312 241.335938 172.480469 238.234375 172.480469 Z M 238.234375 172.480469 " fill-opacity="1" fill-rule="nonzero"/><path fill="#000000" d="M 223.488281 142.144531 L 208.839844 142.144531 C 205.738281 142.144531 203.203125 139.609375 203.203125 136.511719 C 203.203125 133.410156 205.738281 130.875 208.839844 130.875 L 223.488281 130.875 C 226.589844 130.875 229.125 133.410156 229.125 136.511719 C 229.125 139.609375 226.683594 142.144531 223.488281 142.144531 Z M 223.488281 142.144531 " fill-opacity="1" fill-rule="nonzero"/><path fill="#000000" d="M 238.234375 228.546875 L 223.585938 228.546875 C 220.484375 228.546875 217.949219 226.011719 217.949219 222.914062 C 217.949219 219.8125 220.484375 217.277344 223.585938 217.277344 L 232.601562 217.277344 L 232.601562 198.121094 L 223.585938 198.121094 C 220.484375 198.121094 217.949219 195.585938 217.949219 192.484375 C 217.949219 189.386719 220.484375 186.851562 223.585938 186.851562 L 238.234375 186.851562 C 241.335938 186.851562 243.871094 189.386719 243.871094 192.484375 L 243.871094 222.914062 C 243.871094 226.011719 241.335938 228.546875 238.234375 228.546875 Z M 238.234375 228.546875 " fill-opacity="1" fill-rule="nonzero"/><path fill="#000000" d="M 238.234375 284.523438 L 223.585938 284.523438 C 220.484375 284.523438 217.949219 281.984375 217.949219 278.886719 C 217.949219 275.789062 220.484375 273.253906 223.585938 273.253906 L 232.601562 273.253906 L 232.601562 254.1875 L 223.585938 254.1875 C 220.484375 254.1875 217.949219 251.652344 217.949219 248.550781 C 217.949219 245.453125 220.484375 242.917969 223.585938 242.917969 L 238.234375 242.917969 C 241.335938 242.917969 243.871094 245.453125 243.871094 248.550781 L 243.871094 278.980469 C 243.871094 282.082031 241.335938 284.523438 238.234375 284.523438 Z M 238.234375 284.523438 " fill-opacity="1" fill-rule="nonzero"/><path fill="#000000" d="M 238.234375 340.589844 L 223.585938 340.589844 C 220.484375 340.589844 217.949219 338.054688 217.949219 334.953125 C 217.949219 331.855469 220.484375 329.320312 223.585938 329.320312 L 232.601562 329.320312 L 232.601562 310.160156 L 223.585938 310.160156 C 220.484375 310.160156 217.949219 307.625 217.949219 304.527344 C 217.949219 301.425781 220.484375 298.890625 223.585938 298.890625 L 238.234375 298.890625 C 241.335938 298.890625 243.871094 301.425781 243.871094 304.527344 L 243.871094 334.953125 C 243.871094 338.054688 241.335938 340.589844 238.234375 340.589844 Z M 238.234375 340.589844 " fill-opacity="1" fill-rule="nonzero"/><path fill="#000000" d="M 297.027344 172.480469 L 282.378906 172.480469 C 279.277344 172.480469 276.742188 169.945312 276.742188 166.847656 C 276.742188 163.746094 279.277344 161.210938 282.378906 161.210938 L 291.394531 161.210938 L 291.394531 142.050781 L 282.378906 142.050781 C 279.277344 142.050781 276.742188 139.515625 276.742188 136.417969 C 276.742188 133.316406 279.277344 130.78125 282.378906 130.78125 L 297.027344 130.78125 C 300.128906 130.78125 302.664062 133.316406 302.664062 136.417969 L 302.664062 166.847656 C 302.664062 169.945312 300.128906 172.480469 297.027344 172.480469 Z M 297.027344 172.480469 " fill-opacity="1" fill-rule="nonzero"/><path fill="#000000" d="M 282.378906 172.480469 L 267.726562 172.480469 C 264.625 172.480469 262.089844 169.945312 262.089844 166.847656 L 262.089844 136.417969 C 262.089844 133.316406 264.625 130.78125 267.726562 130.78125 L 282.378906 130.78125 C 285.476562 130.78125 288.011719 133.316406 288.011719 136.417969 C 288.011719 139.515625 285.476562 142.050781 282.378906 142.050781 L 273.359375 142.050781 L 273.359375 161.210938 L 282.378906 161.210938 C 285.476562 161.210938 288.011719 163.746094 288.011719 166.847656 C 288.011719 169.945312 285.476562 172.480469 282.378906 172.480469 Z M 282.378906 172.480469 " fill-opacity="1" fill-rule="nonzero"/><path fill="#000000" d="M 297.027344 228.546875 L 282.378906 228.546875 C 279.277344 228.546875 276.742188 226.011719 276.742188 222.914062 C 276.742188 219.8125 279.277344 217.277344 282.378906 217.277344 L 291.394531 217.277344 L 291.394531 198.121094 L 282.378906 198.121094 C 279.277344 198.121094 276.742188 195.585938 276.742188 192.484375 C 276.742188 189.386719 279.277344 186.851562 282.378906 186.851562 L 297.027344 186.851562 C 300.128906 186.851562 302.664062 189.386719 302.664062 192.484375 L 302.664062 222.914062 C 302.664062 226.011719 300.128906 228.546875 297.027344 228.546875 Z M 297.027344 228.546875 " fill-opacity="1" fill-rule="nonzero"/><path fill="#000000" d="M 282.378906 228.546875 L 267.726562 228.546875 C 264.625 228.546875 262.089844 226.011719 262.089844 222.914062 L 262.089844 192.484375 C 262.089844 189.386719 264.625 186.851562 267.726562 186.851562 L 282.378906 186.851562 C 285.476562 186.851562 288.011719 189.386719 288.011719 192.484375 C 288.011719 195.585938 285.476562 198.121094 282.378906 198.121094 L 273.359375 198.121094 L 273.359375 217.277344 L 282.378906 217.277344 C 285.476562 217.277344 288.011719 219.8125 288.011719 222.914062 C 288.011719 226.011719 285.476562 228.546875 282.378906 228.546875 Z M 282.378906 228.546875 " fill-opacity="1" fill-rule="nonzero"/><path fill="#000000" d="M 297.027344 284.523438 L 282.378906 284.523438 C 279.277344 284.523438 276.742188 281.984375 276.742188 278.886719 C 276.742188 275.789062 279.277344 273.253906 282.378906 273.253906 L 291.394531 273.253906 L 291.394531 254.1875 L 282.378906 254.1875 C 279.277344 254.1875 276.742188 251.652344 276.742188 248.550781 C 276.742188 245.453125 279.277344 242.917969 282.378906 242.917969 L 297.027344 242.917969 C 300.128906 242.917969 302.664062 245.453125 302.664062 248.550781 L 302.664062 278.980469 C 302.664062 282.082031 300.128906 284.523438 297.027344 284.523438 Z M 297.027344 284.523438 " fill-opacity="1" fill-rule="nonzero"/><path fill="#000000" d="M 282.378906 284.523438 L 267.726562 284.523438 C 264.625 284.523438 262.089844 281.984375 262.089844 278.886719 L 262.089844 248.550781 C 262.089844 245.453125 264.625 242.917969 267.726562 242.917969 L 282.378906 242.917969 C 285.476562 242.917969 288.011719 245.453125 288.011719 248.550781 C 288.011719 251.652344 285.476562 254.1875 282.378906 254.1875 L 273.359375 254.1875 L 273.359375 273.347656 L 282.378906 273.347656 C 285.476562 273.347656 288.011719 275.882812 288.011719 278.980469 C 288.011719 282.082031 285.476562 284.523438 282.378906 284.523438 Z M 282.378906 284.523438 " fill-opacity="1" fill-rule="nonzero"/><path fill="#000000" d="M 297.027344 340.589844 L 282.378906 340.589844 C 279.277344 340.589844 276.742188 338.054688 276.742188 334.953125 C 276.742188 331.855469 279.277344 329.320312 282.378906 329.320312 L 291.394531 329.320312 L 291.394531 310.160156 L 282.378906 310.160156 C 279.277344 310.160156 276.742188 307.625 276.742188 304.527344 C 276.742188 301.425781 279.277344 298.890625 282.378906 298.890625 L 297.027344 298.890625 C 300.128906 298.890625 302.664062 301.425781 302.664062 304.527344 L 302.664062 334.953125 C 302.664062 338.054688 300.128906 340.589844 297.027344 340.589844 Z M 297.027344 340.589844 " fill-opacity="1" fill-rule="nonzero"/><path fill="#000000" d="M 282.378906 340.589844 L 267.726562 340.589844 C 264.625 340.589844 262.089844 338.054688 262.089844 334.953125 L 262.089844 304.527344 C 262.089844 301.425781 264.625 298.890625 267.726562 298.890625 L 282.378906 298.890625 C 285.476562 298.890625 288.011719 301.425781 288.011719 304.527344 C 288.011719 307.625 285.476562 310.160156 282.378906 310.160156 L 273.359375 310.160156 L 273.359375 329.320312 L 282.378906 329.320312 C 285.476562 329.320312 288.011719 331.855469 288.011719 334.953125 C 288.011719 338.054688 285.476562 340.589844 282.378906 340.589844 Z M 282.378906 340.589844 " fill-opacity="1" fill-rule="nonzero"/><path fill="#000000" d="M 379.773438 247.050781 L 354.039062 247.050781 C 350.9375 247.050781 348.402344 244.515625 348.402344 241.414062 L 348.402344 215.683594 C 348.402344 212.582031 350.9375 210.046875 354.039062 210.046875 L 379.773438 210.046875 C 382.871094 210.046875 385.40625 212.582031 385.40625 215.683594 L 385.40625 241.414062 C 385.40625 244.609375 382.871094 247.050781 379.773438 247.050781 Z M 359.671875 235.78125 L 374.136719 235.78125 L 374.136719 221.316406 L 359.671875 221.316406 Z M 359.671875 235.78125 " fill-opacity="1" fill-rule="nonzero"/><path fill="#000000" d="M 379.773438 303.492188 L 354.039062 303.492188 C 350.9375 303.492188 348.402344 300.957031 348.402344 297.859375 L 348.402344 272.125 C 348.402344 269.027344 350.9375 266.492188 354.039062 266.492188 L 379.773438 266.492188 C 382.871094 266.492188 385.40625 269.027344 385.40625 272.125 L 385.40625 297.859375 C 385.40625 300.957031 382.871094 303.492188 379.773438 303.492188 Z M 359.671875 292.222656 L 374.136719 292.222656 L 374.136719 277.761719 L 359.671875 277.761719 Z M 359.671875 292.222656 " fill-opacity="1" fill-rule="nonzero"/><path fill="#000000" d="M 379.773438 359.84375 L 354.039062 359.84375 C 350.9375 359.84375 348.402344 357.304688 348.402344 354.207031 L 348.402344 328.472656 C 348.402344 325.375 350.9375 322.839844 354.039062 322.839844 L 379.773438 322.839844 C 382.871094 322.839844 385.40625 325.375 385.40625 328.472656 L 385.40625 354.207031 C 385.40625 357.304688 382.871094 359.84375 379.773438 359.84375 Z M 359.671875 348.574219 L 374.136719 348.574219 L 374.136719 334.109375 L 359.671875 334.109375 Z M 359.671875 348.574219 " fill-opacity="1" fill-rule="nonzero"/><g clip-path="url(#0b9d60373b)"><path fill="#000000" d="M 295.054688 114.347656 C 291.957031 114.347656 289.421875 111.8125 289.421875 108.710938 L 289.421875 82.507812 L 223.488281 82.507812 C 220.390625 82.507812 217.855469 79.972656 217.855469 76.875 L 217.855469 32.171875 C 217.855469 29.070312 220.390625 26.535156 223.488281 26.535156 C 226.589844 26.535156 229.125 29.070312 229.125 32.171875 L 229.125 71.238281 L 295.054688 71.238281 C 298.15625 71.238281 300.691406 73.777344 300.691406 76.875 L 300.691406 108.710938 C 300.691406 111.8125 298.25 114.347656 295.054688 114.347656 Z M 295.054688 114.347656 " fill-opacity="1" fill-rule="nonzero"/></g><path fill="#000000" d="M 255.609375 82.507812 C 252.511719 82.507812 249.976562 79.972656 249.976562 76.875 L 249.976562 48.605469 C 249.976562 45.507812 252.511719 42.972656 255.609375 42.972656 C 258.710938 42.972656 261.246094 45.507812 261.246094 48.605469 L 261.246094 76.96875 C 261.246094 80.066406 258.710938 82.507812 255.609375 82.507812 Z M 255.609375 82.507812 " fill-opacity="1" fill-rule="nonzero"/><g clip-path="url(#e2dd17acb2)"><path fill="#000000" d="M 225.085938 423.609375 L 193.90625 423.609375 C 190.804688 423.609375 188.269531 421.074219 188.269531 417.976562 L 188.269531 359.464844 C 188.269531 356.367188 190.804688 353.832031 193.90625 353.832031 L 225.085938 353.832031 C 228.1875 353.832031 230.722656 356.367188 230.722656 359.464844 L 230.722656 417.976562 C 230.722656 421.074219 228.1875 423.609375 225.085938 423.609375 Z M 199.539062 412.339844 L 219.453125 412.339844 L 219.453125 365.101562 L 199.539062 365.101562 Z M 199.539062 412.339844 " fill-opacity="1" fill-rule="nonzero"/></g><g clip-path="url(#7fabd78a2b)"><path fill="#000000" d="M 193.90625 423.609375 L 22.597656 423.609375 C 19.496094 423.609375 16.960938 421.074219 16.960938 417.976562 C 16.960938 414.875 19.496094 412.339844 22.597656 412.339844 L 193.90625 412.339844 C 197.003906 412.339844 199.539062 414.875 199.539062 417.976562 C 199.539062 421.074219 197.003906 423.609375 193.90625 423.609375 Z M 193.90625 423.609375 " fill-opacity="1" fill-rule="nonzero"/></g><g clip-path="url(#eafa2cf591)"><path fill="#000000" d="M 123.652344 423.609375 L 39.316406 423.609375 C 36.214844 423.609375 33.679688 421.074219 33.679688 417.976562 L 33.679688 211.363281 C 33.679688 208.261719 36.214844 205.726562 39.316406 205.726562 L 123.652344 205.726562 C 126.753906 205.726562 129.289062 208.261719 129.289062 211.363281 L 129.289062 417.882812 C 129.289062 421.074219 126.753906 423.609375 123.652344 423.609375 Z M 44.949219 412.339844 L 118.019531 412.339844 L 118.019531 216.996094 L 44.949219 216.996094 Z M 44.949219 412.339844 " fill-opacity="1" fill-rule="nonzero"/></g><path fill="#000000" d="M 123.652344 234.558594 C 120.554688 234.558594 118.019531 232.023438 118.019531 228.925781 L 118.019531 108.710938 C 118.019531 105.613281 120.554688 103.078125 123.652344 103.078125 L 225.085938 103.078125 C 228.1875 103.078125 230.722656 105.613281 230.722656 108.710938 C 230.722656 111.8125 228.1875 114.347656 225.085938 114.347656 L 129.289062 114.347656 L 129.289062 228.832031 C 129.289062 232.023438 126.753906 234.558594 123.652344 234.558594 Z M 123.652344 234.558594 " fill-opacity="1" fill-rule="nonzero"/><path fill="#000000" d="M 226.683594 172.480469 L 211.9375 172.480469 C 208.839844 172.480469 206.304688 169.945312 206.304688 166.847656 L 206.304688 136.417969 C 206.304688 133.316406 208.839844 130.78125 211.9375 130.78125 L 226.589844 130.78125 C 229.6875 130.78125 232.226562 133.316406 232.226562 136.417969 C 232.226562 139.515625 229.6875 142.050781 226.589844 142.050781 L 217.574219 142.050781 L 217.574219 161.210938 L 226.589844 161.210938 C 229.6875 161.210938 232.226562 163.746094 232.226562 166.847656 C 232.226562 169.945312 229.78125 172.480469 226.683594 172.480469 Z M 226.683594 172.480469 " fill-opacity="1" fill-rule="nonzero"/><path fill="#000000" d="M 241.335938 142.144531 L 226.683594 142.144531 C 223.585938 142.144531 221.046875 139.609375 221.046875 136.511719 C 221.046875 133.410156 223.585938 130.875 226.683594 130.875 L 241.335938 130.875 C 244.433594 130.875 246.96875 133.410156 246.96875 136.511719 C 246.96875 139.609375 244.433594 142.144531 241.335938 142.144531 Z M 241.335938 142.144531 " fill-opacity="1" fill-rule="nonzero"/><path fill="#000000" d="M 226.683594 228.546875 L 211.9375 228.546875 C 208.839844 228.546875 206.304688 226.011719 206.304688 222.914062 L 206.304688 192.484375 C 206.304688 189.386719 208.839844 186.851562 211.9375 186.851562 L 226.589844 186.851562 C 229.6875 186.851562 232.226562 189.386719 232.226562 192.484375 C 232.226562 195.585938 229.6875 198.121094 226.589844 198.121094 L 217.574219 198.121094 L 217.574219 217.277344 L 226.589844 217.277344 C 229.6875 217.277344 232.226562 219.8125 232.226562 222.914062 C 232.226562 226.011719 229.78125 228.546875 226.683594 228.546875 Z M 226.683594 228.546875 " fill-opacity="1" fill-rule="nonzero"/><path fill="#000000" d="M 226.683594 284.523438 L 211.9375 284.523438 C 208.839844 284.523438 206.304688 281.984375 206.304688 278.886719 L 206.304688 248.550781 C 206.304688 245.453125 208.839844 242.917969 211.9375 242.917969 L 226.589844 242.917969 C 229.6875 242.917969 232.226562 245.453125 232.226562 248.550781 C 232.226562 251.652344 229.6875 254.1875 226.589844 254.1875 L 217.574219 254.1875 L 217.574219 273.347656 L 226.589844 273.347656 C 229.6875 273.347656 232.226562 275.882812 232.226562 278.980469 C 232.226562 282.082031 229.78125 284.523438 226.683594 284.523438 Z M 226.683594 284.523438 " fill-opacity="1" fill-rule="nonzero"/><path fill="#000000" d="M 226.683594 340.589844 L 211.9375 340.589844 C 208.839844 340.589844 206.304688 338.054688 206.304688 334.953125 L 206.304688 304.527344 C 206.304688 301.425781 208.839844 298.890625 211.9375 298.890625 L 226.589844 298.890625 C 229.6875 298.890625 232.226562 301.425781 232.226562 304.527344 C 232.226562 307.625 229.6875 310.160156 226.589844 310.160156 L 217.574219 310.160156 L 217.574219 329.320312 L 226.589844 329.320312 C 229.6875 329.320312 232.226562 331.855469 232.226562 334.953125 C 232.226562 338.054688 229.78125 340.589844 226.683594 340.589844 Z M 226.683594 340.589844 " fill-opacity="1" fill-rule="nonzero"/><path fill="#000000" d="M 167.796875 172.480469 L 153.144531 172.480469 C 150.046875 172.480469 147.507812 169.945312 147.507812 166.847656 L 147.507812 136.417969 C 147.507812 133.316406 150.046875 130.78125 153.144531 130.78125 L 167.796875 130.78125 C 170.894531 130.78125 173.429688 133.316406 173.429688 136.417969 C 173.429688 139.515625 170.894531 142.050781 167.796875 142.050781 L 158.78125 142.050781 L 158.78125 161.210938 L 167.796875 161.210938 C 170.894531 161.210938 173.429688 163.746094 173.429688 166.847656 C 173.429688 169.945312 170.894531 172.480469 167.796875 172.480469 Z M 167.796875 172.480469 " fill-opacity="1" fill-rule="nonzero"/><path fill="#000000" d="M 182.449219 172.480469 L 167.796875 172.480469 C 164.695312 172.480469 162.160156 169.945312 162.160156 166.847656 C 162.160156 163.746094 164.695312 161.210938 167.796875 161.210938 L 176.8125 161.210938 L 176.8125 142.050781 L 167.796875 142.050781 C 164.695312 142.050781 162.160156 139.515625 162.160156 136.417969 C 162.160156 133.316406 164.695312 130.78125 167.796875 130.78125 L 182.449219 130.78125 C 185.546875 130.78125 188.082031 133.316406 188.082031 136.417969 L 188.082031 166.847656 C 188.082031 169.945312 185.546875 172.480469 182.449219 172.480469 Z M 182.449219 172.480469 " fill-opacity="1" fill-rule="nonzero"/><path fill="#000000" d="M 167.796875 228.546875 L 153.144531 228.546875 C 150.046875 228.546875 147.507812 226.011719 147.507812 222.914062 L 147.507812 192.484375 C 147.507812 189.386719 150.046875 186.851562 153.144531 186.851562 L 167.796875 186.851562 C 170.894531 186.851562 173.429688 189.386719 173.429688 192.484375 C 173.429688 195.585938 170.894531 198.121094 167.796875 198.121094 L 158.78125 198.121094 L 158.78125 217.277344 L 167.796875 217.277344 C 170.894531 217.277344 173.429688 219.8125 173.429688 222.914062 C 173.429688 226.011719 170.894531 228.546875 167.796875 228.546875 Z M 167.796875 228.546875 " fill-opacity="1" fill-rule="nonzero"/><path fill="#000000" d="M 182.449219 228.546875 L 167.796875 228.546875 C 164.695312 228.546875 162.160156 226.011719 162.160156 222.914062 C 162.160156 219.8125 164.695312 217.277344 167.796875 217.277344 L 176.8125 217.277344 L 176.8125 198.121094 L 167.796875 198.121094 C 164.695312 198.121094 162.160156 195.585938 162.160156 192.484375 C 162.160156 189.386719 164.695312 186.851562 167.796875 186.851562 L 182.449219 186.851562 C 185.546875 186.851562 188.082031 189.386719 188.082031 192.484375 L 188.082031 222.914062 C 188.082031 226.011719 185.546875 228.546875 182.449219 228.546875 Z M 182.449219 228.546875 " fill-opacity="1" fill-rule="nonzero"/><path fill="#000000" d="M 167.796875 284.523438 L 153.144531 284.523438 C 150.046875 284.523438 147.507812 281.984375 147.507812 278.886719 L 147.507812 248.550781 C 147.507812 245.453125 150.046875 242.917969 153.144531 242.917969 L 167.796875 242.917969 C 170.894531 242.917969 173.429688 245.453125 173.429688 248.550781 C 173.429688 251.652344 170.894531 254.1875 167.796875 254.1875 L 158.78125 254.1875 L 158.78125 273.347656 L 167.796875 273.347656 C 170.894531 273.347656 173.429688 275.882812 173.429688 278.980469 C 173.429688 282.082031 170.894531 284.523438 167.796875 284.523438 Z M 167.796875 284.523438 " fill-opacity="1" fill-rule="nonzero"/><path fill="#000000" d="M 182.449219 284.523438 L 167.796875 284.523438 C 164.695312 284.523438 162.160156 281.984375 162.160156 278.886719 C 162.160156 275.789062 164.695312 273.253906 167.796875 273.253906 L 176.8125 273.253906 L 176.8125 254.1875 L 167.796875 254.1875 C 164.695312 254.1875 162.160156 251.652344 162.160156 248.550781 C 162.160156 245.453125 164.695312 242.917969 167.796875 242.917969 L 182.449219 242.917969 C 185.546875 242.917969 188.082031 245.453125 188.082031 248.550781 L 188.082031 278.980469 C 188.082031 282.082031 185.546875 284.523438 182.449219 284.523438 Z M 182.449219 284.523438 " fill-opacity="1" fill-rule="nonzero"/><path fill="#000000" d="M 167.796875 340.589844 L 153.144531 340.589844 C 150.046875 340.589844 147.507812 338.054688 147.507812 334.953125 L 147.507812 304.527344 C 147.507812 301.425781 150.046875 298.890625 153.144531 298.890625 L 167.796875 298.890625 C 170.894531 298.890625 173.429688 301.425781 173.429688 304.527344 C 173.429688 307.625 170.894531 310.160156 167.796875 310.160156 L 158.78125 310.160156 L 158.78125 329.320312 L 167.796875 329.320312 C 170.894531 329.320312 173.429688 331.855469 173.429688 334.953125 C 173.429688 338.054688 170.894531 340.589844 167.796875 340.589844 Z M 167.796875 340.589844 " fill-opacity="1" fill-rule="nonzero"/><path fill="#000000" d="M 182.449219 340.589844 L 167.796875 340.589844 C 164.695312 340.589844 162.160156 338.054688 162.160156 334.953125 C 162.160156 331.855469 164.695312 329.320312 167.796875 329.320312 L 176.8125 329.320312 L 176.8125 310.160156 L 167.796875 310.160156 C 164.695312 310.160156 162.160156 307.625 162.160156 304.527344 C 162.160156 301.425781 164.695312 298.890625 167.796875 298.890625 L 182.449219 298.890625 C 185.546875 298.890625 188.082031 301.425781 188.082031 304.527344 L 188.082031 334.953125 C 188.082031 338.054688 185.546875 340.589844 182.449219 340.589844 Z M 182.449219 340.589844 " fill-opacity="1" fill-rule="nonzero"/><g clip-path="url(#1fba77920e)"><path fill="#000000" d="M 155.117188 114.347656 C 152.019531 114.347656 149.480469 111.8125 149.480469 108.710938 L 149.480469 76.96875 C 149.480469 73.871094 152.019531 71.332031 155.117188 71.332031 L 221.046875 71.332031 L 221.046875 32.171875 C 221.046875 29.070312 223.585938 26.535156 226.683594 26.535156 C 229.78125 26.535156 232.320312 29.070312 232.320312 32.171875 L 232.320312 76.875 C 232.320312 79.972656 229.78125 82.507812 226.683594 82.507812 L 160.753906 82.507812 L 160.753906 108.710938 C 160.753906 111.8125 158.214844 114.347656 155.117188 114.347656 Z M 155.117188 114.347656 " fill-opacity="1" fill-rule="nonzero"/></g><path fill="#000000" d="M 194.5625 82.507812 C 191.464844 82.507812 188.929688 79.972656 188.929688 76.875 L 188.929688 48.605469 C 188.929688 45.507812 191.464844 42.972656 194.5625 42.972656 C 197.664062 42.972656 200.199219 45.507812 200.199219 48.605469 L 200.199219 76.96875 C 200.199219 80.066406 197.664062 82.507812 194.5625 82.507812 Z M 194.5625 82.507812 " fill-opacity="1" fill-rule="nonzero"/><path fill="#000000" d="M 93.789062 271.375 L 69.460938 271.375 C 66.363281 271.375 63.828125 268.839844 63.828125 265.738281 L 63.828125 241.414062 C 63.828125 238.316406 66.363281 235.78125 69.460938 235.78125 L 93.789062 235.78125 C 96.886719 235.78125 99.421875 238.316406 99.421875 241.414062 L 99.421875 265.738281 C 99.421875 268.839844 96.886719 271.375 93.789062 271.375 Z M 75.097656 260.105469 L 88.152344 260.105469 L 88.152344 247.050781 L 75.097656 247.050781 Z M 75.097656 260.105469 " fill-opacity="1" fill-rule="nonzero"/><path fill="#000000" d="M 93.789062 327.816406 L 69.460938 327.816406 C 66.363281 327.816406 63.828125 325.28125 63.828125 322.183594 L 63.828125 297.859375 C 63.828125 294.757812 66.363281 292.222656 69.460938 292.222656 L 93.789062 292.222656 C 96.886719 292.222656 99.421875 294.757812 99.421875 297.859375 L 99.421875 322.183594 C 99.421875 325.28125 96.886719 327.816406 93.789062 327.816406 Z M 75.097656 316.546875 L 88.152344 316.546875 L 88.152344 303.492188 L 75.097656 303.492188 Z M 75.097656 316.546875 " fill-opacity="1" fill-rule="nonzero"/><g clip-path="url(#63429cb15c)"><path fill="#000000" d="M 96.792969 423.609375 L 64.578125 423.609375 C 61.480469 423.609375 58.945312 421.074219 58.945312 417.976562 L 58.945312 356.179688 C 58.945312 353.082031 61.480469 350.542969 64.578125 350.542969 L 96.886719 350.542969 C 99.988281 350.542969 102.523438 353.082031 102.523438 356.179688 L 102.523438 417.976562 C 102.429688 421.074219 99.988281 423.609375 96.792969 423.609375 Z M 70.214844 412.339844 L 91.25 412.339844 L 91.25 361.816406 L 70.214844 361.816406 Z M 70.214844 412.339844 " fill-opacity="1" fill-rule="nonzero"/></g></svg>
